<svg width="325" height="88" viewBox="0 0 325 88" fill="none" xmlns="http://www.w3.org/2000/svg">
<path d="M10.2924 72.0909V83H8.31623V72.0909H10.2924ZM13.7755 78.206V83H11.8472V74.8182H13.6903V76.2085H13.7861C13.9743 75.7504 14.2744 75.3864 14.6863 75.1165C15.1018 74.8466 15.615 74.7116 16.2258 74.7116C16.7904 74.7116 17.2822 74.8324 17.7013 75.0739C18.1238 75.3153 18.4506 75.6651 18.6814 76.1232C18.9157 76.5813 19.0312 77.1371 19.0276 77.7905V83H17.0993V78.0888C17.0993 77.5419 16.9573 77.114 16.6732 76.805C16.3927 76.4961 16.0038 76.3416 15.5067 76.3416C15.1693 76.3416 14.8692 76.4162 14.6064 76.5653C14.3472 76.7109 14.143 76.9222 13.9939 77.1992C13.8483 77.4762 13.7755 77.8118 13.7755 78.206ZM26.9545 76.9808L25.1966 77.1726C25.1469 76.995 25.0599 76.8281 24.9356 76.6719C24.8149 76.5156 24.6515 76.3896 24.4456 76.2937C24.2396 76.1978 23.9875 76.1499 23.6892 76.1499C23.2879 76.1499 22.9506 76.2369 22.6771 76.4109C22.4072 76.5849 22.2741 76.8104 22.2776 77.0874C22.2741 77.3253 22.3611 77.5188 22.5386 77.668C22.7197 77.8171 23.018 77.9396 23.4335 78.0355L24.8291 78.3338C25.6032 78.5007 26.1785 78.7653 26.555 79.1275C26.9349 79.4897 27.1267 79.9638 27.1302 80.5497C27.1267 81.0646 26.9758 81.5192 26.6775 81.9134C26.3827 82.304 25.9726 82.6094 25.447 82.8295C24.9214 83.0497 24.3177 83.1598 23.6359 83.1598C22.6345 83.1598 21.8284 82.9503 21.2176 82.5312C20.6068 82.1087 20.2428 81.521 20.1256 80.7681L22.0059 80.587C22.0912 80.9563 22.2723 81.2351 22.5493 81.4233C22.8263 81.6115 23.1867 81.7056 23.6306 81.7056C24.0887 81.7056 24.4562 81.6115 24.7332 81.4233C25.0138 81.2351 25.154 81.0025 25.154 80.7255C25.154 80.4911 25.0635 80.2976 24.8824 80.1449C24.7048 79.9922 24.4278 79.875 24.0514 79.7933L22.6558 79.5004C21.871 79.337 21.2904 79.0618 20.914 78.6747C20.5376 78.2841 20.3511 77.7905 20.3547 77.1939C20.3511 76.6896 20.4878 76.2528 20.7648 75.8835C21.0454 75.5107 21.4342 75.223 21.9314 75.0206C22.4321 74.8146 23.0091 74.7116 23.6626 74.7116C24.6214 74.7116 25.376 74.9158 25.9264 75.3242C26.4804 75.7326 26.8231 76.2848 26.9545 76.9808ZM32.3058 74.8182V76.3097H27.6024V74.8182H32.3058ZM28.7636 72.858H30.6919V80.5391C30.6919 80.7983 30.7309 80.9972 30.809 81.1357C30.8907 81.2706 30.9972 81.3629 31.1286 81.4126C31.26 81.4624 31.4056 81.4872 31.5654 81.4872C31.6862 81.4872 31.7963 81.4783 31.8957 81.4606C31.9987 81.4428 32.0768 81.4268 32.1301 81.4126L32.455 82.9201C32.352 82.9556 32.2046 82.9947 32.0129 83.0373C31.8247 83.0799 31.5938 83.1048 31.3204 83.1119C30.8374 83.1261 30.4024 83.0533 30.0154 82.8935C29.6283 82.7301 29.3211 82.478 29.0938 82.1371C28.8701 81.7962 28.76 81.37 28.7636 80.8587V72.858ZM33.4185 83V74.8182H35.3468V83H33.4185ZM34.388 73.657C34.0826 73.657 33.8198 73.5558 33.5996 73.3533C33.3794 73.1474 33.2694 72.9006 33.2694 72.6129C33.2694 72.3217 33.3794 72.0749 33.5996 71.8725C33.8198 71.6665 34.0826 71.5636 34.388 71.5636C34.6969 71.5636 34.9597 71.6665 35.1763 71.8725C35.3965 72.0749 35.5066 72.3217 35.5066 72.6129C35.5066 72.9006 35.3965 73.1474 35.1763 73.3533C34.9597 73.5558 34.6969 73.657 34.388 73.657ZM40.9152 74.8182V76.3097H36.2117V74.8182H40.9152ZM37.373 72.858H39.3012V80.5391C39.3012 80.7983 39.3403 80.9972 39.4184 81.1357C39.5001 81.2706 39.6066 81.3629 39.738 81.4126C39.8694 81.4624 40.015 81.4872 40.1748 81.4872C40.2955 81.4872 40.4056 81.4783 40.5051 81.4606C40.608 81.4428 40.6862 81.4268 40.7394 81.4126L41.0644 82.9201C40.9614 82.9556 40.814 82.9947 40.6222 83.0373C40.434 83.0799 40.2032 83.1048 39.9298 83.1119C39.4468 83.1261 39.0118 83.0533 38.6247 82.8935C38.2377 82.7301 37.9305 82.478 37.7032 82.1371C37.4795 81.7962 37.3694 81.37 37.373 80.8587V72.858ZM47.2427 79.5589V74.8182H49.171V83H47.3013V81.5458H47.2161C47.0314 82.0039 46.7278 82.3786 46.3052 82.6697C45.8862 82.9609 45.3695 83.1065 44.7551 83.1065C44.2189 83.1065 43.7449 82.9876 43.3329 82.7496C42.9245 82.5082 42.6049 82.1584 42.3741 81.7003C42.1433 81.2386 42.0279 80.6811 42.0279 80.0277V74.8182H43.9561V79.7294C43.9561 80.2479 44.0982 80.6598 44.3823 80.9652C44.6664 81.2706 45.0392 81.4233 45.5009 81.4233C45.785 81.4233 46.0602 81.354 46.3265 81.2156C46.5929 81.0771 46.8113 80.8711 46.9817 80.5977C47.1557 80.3207 47.2427 79.9744 47.2427 79.5589ZM54.7394 74.8182V76.3097H50.036V74.8182H54.7394ZM51.1972 72.858H53.1254V80.5391C53.1254 80.7983 53.1645 80.9972 53.2426 81.1357C53.3243 81.2706 53.4308 81.3629 53.5622 81.4126C53.6936 81.4624 53.8392 81.4872 53.999 81.4872C54.1198 81.4872 54.2298 81.4783 54.3293 81.4606C54.4323 81.4428 54.5104 81.4268 54.5637 81.4126L54.8886 82.9201C54.7856 82.9556 54.6382 82.9947 54.4465 83.0373C54.2583 83.0799 54.0274 83.1048 53.754 83.1119C53.271 83.1261 52.836 83.0533 52.449 82.8935C52.0619 82.7301 51.7547 82.478 51.5274 82.1371C51.3037 81.7962 51.1936 81.37 51.1972 80.8587V72.858ZM59.3331 83.1598C58.5341 83.1598 57.8416 82.984 57.2557 82.6325C56.6697 82.2809 56.2152 81.7891 55.892 81.157C55.5724 80.5249 55.4126 79.7862 55.4126 78.9411C55.4126 78.0959 55.5724 77.3555 55.892 76.7198C56.2152 76.0842 56.6697 75.5906 57.2557 75.239C57.8416 74.8874 58.5341 74.7116 59.3331 74.7116C60.1321 74.7116 60.8246 74.8874 61.4105 75.239C61.9964 75.5906 62.4492 76.0842 62.7688 76.7198C63.092 77.3555 63.2536 78.0959 63.2536 78.9411C63.2536 79.7862 63.092 80.5249 62.7688 81.157C62.4492 81.7891 61.9964 82.2809 61.4105 82.6325C60.8246 82.984 60.1321 83.1598 59.3331 83.1598ZM59.3438 81.6151C59.777 81.6151 60.1392 81.4961 60.4304 81.2582C60.7216 81.0167 60.9382 80.6935 61.0803 80.2887C61.2259 79.8839 61.2987 79.4329 61.2987 78.9357C61.2987 78.435 61.2259 77.9822 61.0803 77.5774C60.9382 77.169 60.7216 76.8441 60.4304 76.6026C60.1392 76.3612 59.777 76.2404 59.3438 76.2404C58.8999 76.2404 58.5305 76.3612 58.2358 76.6026C57.9446 76.8441 57.7262 77.169 57.5806 77.5774C57.4386 77.9822 57.3675 78.435 57.3675 78.9357C57.3675 79.4329 57.4386 79.8839 57.5806 80.2887C57.7262 80.6935 57.9446 81.0167 58.2358 81.2582C58.5305 81.4961 58.8999 81.6151 59.3438 81.6151ZM67.2167 73.7475V72.0909H75.9205V73.7475H72.5487V83H70.5885V73.7475H67.2167ZM79.4489 83.1598C78.6286 83.1598 77.9201 82.9893 77.3235 82.6484C76.7305 82.304 76.2741 81.8175 75.9545 81.1889C75.6349 80.5568 75.4751 79.8129 75.4751 78.957C75.4751 78.1154 75.6349 77.3768 75.9545 76.7411C76.2777 76.1019 76.7287 75.6048 77.3075 75.2496C77.8864 74.891 78.5664 74.7116 79.3477 74.7116C79.8519 74.7116 80.3278 74.7933 80.7752 74.9567C81.2262 75.1165 81.6239 75.3651 81.9684 75.7024C82.3164 76.0398 82.5898 76.4695 82.7887 76.9915C82.9876 77.5099 83.087 78.1278 83.087 78.8452V79.4364H76.3807V78.1367H81.2386C81.2351 77.7674 81.1552 77.4389 80.9989 77.1513C80.8427 76.8601 80.6243 76.631 80.3438 76.4641C80.0668 76.2972 79.7436 76.2138 79.3743 76.2138C78.9801 76.2138 78.6339 76.3097 78.3356 76.5014C78.0373 76.6896 77.8047 76.9382 77.6378 77.2472C77.4744 77.5526 77.391 77.8881 77.3874 78.2539V79.3885C77.3874 79.8643 77.4744 80.2727 77.6484 80.6136C77.8224 80.951 78.0657 81.2102 78.3782 81.3913C78.6907 81.5689 79.0565 81.6577 79.4755 81.6577C79.756 81.6577 80.0099 81.6186 80.2372 81.5405C80.4645 81.4588 80.6616 81.3398 80.8285 81.1836C80.9954 81.0273 81.1214 80.8338 81.2067 80.603L83.0071 80.8054C82.8935 81.2812 82.6768 81.6967 82.3572 82.0518C82.0412 82.4034 81.6364 82.6768 81.1428 82.8722C80.6491 83.0639 80.0845 83.1598 79.4489 83.1598ZM78.554 73.7422L79.7472 71.3079H81.6328L79.9975 73.7422H78.554ZM87.7872 83.1598C86.9704 83.1598 86.2691 82.9805 85.6831 82.6218C85.1008 82.2631 84.6515 81.7678 84.3355 81.1357C84.023 80.5 83.8667 79.7685 83.8667 78.9411C83.8667 78.1101 84.0265 77.3768 84.3461 76.7411C84.6657 76.1019 85.1167 75.6048 85.6991 75.2496C86.2851 74.891 86.9775 74.7116 87.7765 74.7116C88.4406 74.7116 89.0283 74.8342 89.5397 75.0792C90.0546 75.3207 90.4648 75.6634 90.7702 76.1072C91.0756 76.5476 91.2496 77.0625 91.2922 77.652H89.4491C89.3746 77.2578 89.197 76.9293 88.9165 76.6665C88.6395 76.4002 88.2684 76.267 87.8032 76.267C87.409 76.267 87.0628 76.3736 86.7645 76.5866C86.4662 76.7962 86.2336 77.098 86.0667 77.4922C85.9033 77.8864 85.8216 78.3587 85.8216 78.9091C85.8216 79.4666 85.9033 79.946 86.0667 80.3473C86.23 80.745 86.4591 81.0522 86.7538 81.2688C87.0521 81.4819 87.4019 81.5884 87.8032 81.5884C88.0873 81.5884 88.3412 81.5352 88.5649 81.4286C88.7922 81.3185 88.9822 81.1605 89.1349 80.9545C89.2876 80.7486 89.3923 80.4982 89.4491 80.2035H91.2922C91.246 80.7823 91.0756 81.2955 90.7808 81.7429C90.4861 82.1868 90.0848 82.5348 89.577 82.7869C89.0692 83.0355 88.4726 83.1598 87.7872 83.1598ZM94.3038 78.206V83H92.3755V74.8182H94.2186V76.2085H94.3145C94.5027 75.7504 94.8027 75.3864 95.2147 75.1165C95.6301 74.8466 96.1433 74.7116 96.7541 74.7116C97.3187 74.7116 97.8105 74.8324 98.2296 75.0739C98.6522 75.3153 98.9789 75.6651 99.2097 76.1232C99.4441 76.5813 99.5595 77.1371 99.5559 77.7905V83H97.6277V78.0888C97.6277 77.5419 97.4856 77.114 97.2015 76.805C96.921 76.4961 96.5321 76.3416 96.035 76.3416C95.6976 76.3416 95.3975 76.4162 95.1348 76.5653C94.8755 76.7109 94.6713 76.9222 94.5222 77.1992C94.3766 77.4762 94.3038 77.8118 94.3038 78.206ZM101.016 83V74.8182H102.944V83H101.016ZM101.986 73.657C101.68 73.657 101.417 73.5558 101.197 73.3533C100.977 73.1474 100.867 72.9006 100.867 72.6129C100.867 72.3217 100.977 72.0749 101.197 71.8725C101.417 71.6665 101.68 71.5636 101.986 71.5636C102.295 71.5636 102.557 71.6665 102.774 71.8725C102.994 72.0749 103.104 72.3217 103.104 72.6129C103.104 72.9006 102.994 73.1474 102.774 73.3533C102.557 73.5558 102.295 73.657 101.986 73.657ZM107.996 83.1598C107.179 83.1598 106.478 82.9805 105.892 82.6218C105.31 82.2631 104.861 81.7678 104.544 81.1357C104.232 80.5 104.076 79.7685 104.076 78.9411C104.076 78.1101 104.236 77.3768 104.555 76.7411C104.875 76.1019 105.326 75.6048 105.908 75.2496C106.494 74.891 107.187 74.7116 107.986 74.7116C108.65 74.7116 109.237 74.8342 109.749 75.0792C110.264 75.3207 110.674 75.6634 110.979 76.1072C111.285 76.5476 111.459 77.0625 111.501 77.652H109.658C109.584 77.2578 109.406 76.9293 109.125 76.6665C108.848 76.4002 108.477 76.267 108.012 76.267C107.618 76.267 107.272 76.3736 106.973 76.5866C106.675 76.7962 106.443 77.098 106.276 77.4922C106.112 77.8864 106.031 78.3587 106.031 78.9091C106.031 79.4666 106.112 79.946 106.276 80.3473C106.439 80.745 106.668 81.0522 106.963 81.2688C107.261 81.4819 107.611 81.5884 108.012 81.5884C108.296 81.5884 108.55 81.5352 108.774 81.4286C109.001 81.3185 109.191 81.1605 109.344 80.9545C109.497 80.7486 109.601 80.4982 109.658 80.2035H111.501C111.455 80.7823 111.285 81.2955 110.99 81.7429C110.695 82.1868 110.294 82.5348 109.786 82.7869C109.278 83.0355 108.682 83.1598 107.996 83.1598ZM116.153 83.1598C115.354 83.1598 114.662 82.984 114.076 82.6325C113.49 82.2809 113.036 81.7891 112.712 81.157C112.393 80.5249 112.233 79.7862 112.233 78.9411C112.233 78.0959 112.393 77.3555 112.712 76.7198C113.036 76.0842 113.49 75.5906 114.076 75.239C114.662 74.8874 115.354 74.7116 116.153 74.7116C116.952 74.7116 117.645 74.8874 118.231 75.239C118.817 75.5906 119.27 76.0842 119.589 76.7198C119.912 77.3555 120.074 78.0959 120.074 78.9411C120.074 79.7862 119.912 80.5249 119.589 81.157C119.27 81.7891 118.817 82.2809 118.231 82.6325C117.645 82.984 116.952 83.1598 116.153 83.1598ZM116.164 81.6151C116.597 81.6151 116.96 81.4961 117.251 81.2582C117.542 81.0167 117.759 80.6935 117.901 80.2887C118.046 79.8839 118.119 79.4329 118.119 78.9357C118.119 78.435 118.046 77.9822 117.901 77.5774C117.759 77.169 117.542 76.8441 117.251 76.6026C116.96 76.3612 116.597 76.2404 116.164 76.2404C115.72 76.2404 115.351 76.3612 115.056 76.6026C114.765 76.8441 114.547 77.169 114.401 77.5774C114.259 77.9822 114.188 78.435 114.188 78.9357C114.188 79.4329 114.259 79.8839 114.401 80.2887C114.547 80.6935 114.765 81.0167 115.056 81.2582C115.351 81.4961 115.72 81.6151 116.164 81.6151ZM124.516 83V72.0909H131.612V73.7475H126.493V76.7092H131.244V78.3658H126.493V81.3434H131.654V83H124.516ZM136.079 83.1438C135.436 83.1438 134.861 82.9787 134.353 82.6484C133.845 82.3182 133.444 81.8388 133.149 81.2102C132.854 80.5817 132.707 79.8182 132.707 78.9197C132.707 78.0107 132.856 77.2436 133.154 76.6186C133.456 75.9901 133.863 75.516 134.374 75.1964C134.886 74.8732 135.456 74.7116 136.084 74.7116C136.563 74.7116 136.958 74.7933 137.267 74.9567C137.576 75.1165 137.821 75.31 138.002 75.5373C138.183 75.761 138.323 75.9723 138.422 76.1712H138.502V72.0909H140.436V83H138.54V81.7109H138.422C138.323 81.9098 138.179 82.1211 137.991 82.3448C137.803 82.565 137.554 82.7532 137.245 82.9094C136.936 83.0657 136.547 83.1438 136.079 83.1438ZM136.617 81.5618C137.025 81.5618 137.373 81.4517 137.661 81.2315C137.948 81.0078 138.167 80.6971 138.316 80.2994C138.465 79.9016 138.54 79.4382 138.54 78.9091C138.54 78.38 138.465 77.9201 138.316 77.5295C138.17 77.1388 137.954 76.8352 137.666 76.6186C137.382 76.402 137.032 76.2937 136.617 76.2937C136.187 76.2937 135.828 76.4055 135.541 76.6293C135.253 76.853 135.036 77.1619 134.891 77.5561C134.745 77.9503 134.672 78.4013 134.672 78.9091C134.672 79.4205 134.745 79.8768 134.891 80.2781C135.04 80.6758 135.258 80.9901 135.546 81.2209C135.837 81.4482 136.194 81.5618 136.617 81.5618ZM147.206 79.5589V74.8182H149.134V83H147.264V81.5458H147.179C146.994 82.0039 146.691 82.3786 146.268 82.6697C145.849 82.9609 145.332 83.1065 144.718 83.1065C144.182 83.1065 143.708 82.9876 143.296 82.7496C142.887 82.5082 142.568 82.1584 142.337 81.7003C142.106 81.2386 141.991 80.6811 141.991 80.0277V74.8182H143.919V79.7294C143.919 80.2479 144.061 80.6598 144.345 80.9652C144.629 81.2706 145.002 81.4233 145.464 81.4233C145.748 81.4233 146.023 81.354 146.289 81.2156C146.556 81.0771 146.774 80.8711 146.945 80.5977C147.119 80.3207 147.206 79.9744 147.206 79.5589ZM154.186 83.1598C153.369 83.1598 152.668 82.9805 152.082 82.6218C151.499 82.2631 151.05 81.7678 150.734 81.1357C150.421 80.5 150.265 79.7685 150.265 78.9411C150.265 78.1101 150.425 77.3768 150.745 76.7411C151.064 76.1019 151.515 75.6048 152.098 75.2496C152.684 74.891 153.376 74.7116 154.175 74.7116C154.839 74.7116 155.427 74.8342 155.938 75.0792C156.453 75.3207 156.863 75.6634 157.169 76.1072C157.474 76.5476 157.648 77.0625 157.691 77.652H155.848C155.773 77.2578 155.595 76.9293 155.315 76.6665C155.038 76.4002 154.667 76.267 154.202 76.267C153.807 76.267 153.461 76.3736 153.163 76.5866C152.865 76.7962 152.632 77.098 152.465 77.4922C152.302 77.8864 152.22 78.3587 152.22 78.9091C152.22 79.4666 152.302 79.946 152.465 80.3473C152.628 80.745 152.858 81.0522 153.152 81.2688C153.451 81.4819 153.8 81.5884 154.202 81.5884C154.486 81.5884 154.74 81.5352 154.963 81.4286C155.191 81.3185 155.381 81.1605 155.533 80.9545C155.686 80.7486 155.791 80.4982 155.848 80.2035H157.691C157.644 80.7823 157.474 81.2955 157.179 81.7429C156.884 82.1868 156.483 82.5348 155.975 82.7869C155.468 83.0355 154.871 83.1598 154.186 83.1598ZM161.128 83.1651C160.61 83.1651 160.143 83.0728 159.727 82.8881C159.316 82.6999 158.989 82.4229 158.747 82.0572C158.509 81.6914 158.39 81.2404 158.39 80.7042C158.39 80.2425 158.476 79.8608 158.646 79.5589C158.817 79.2571 159.049 79.0156 159.344 78.8345C159.639 78.6534 159.971 78.5167 160.34 78.4244C160.713 78.3285 161.098 78.2592 161.496 78.2166C161.975 78.1669 162.364 78.1225 162.662 78.0835C162.961 78.0408 163.177 77.9769 163.312 77.8917C163.451 77.8029 163.52 77.6662 163.52 77.4815V77.4496C163.52 77.0483 163.401 76.7376 163.163 76.5174C162.925 76.2972 162.583 76.1871 162.135 76.1871C161.663 76.1871 161.288 76.2901 161.011 76.4961C160.738 76.7021 160.553 76.9453 160.457 77.2259L158.657 76.9702C158.799 76.473 159.033 76.0575 159.36 75.7237C159.687 75.3864 160.086 75.1342 160.558 74.9673C161.031 74.7969 161.553 74.7116 162.124 74.7116C162.519 74.7116 162.911 74.7578 163.302 74.8501C163.692 74.9425 164.049 75.0952 164.372 75.3082C164.695 75.5178 164.955 75.8036 165.15 76.1658C165.349 76.5281 165.448 76.9808 165.448 77.5241V83H163.595V81.8761H163.531C163.414 82.1033 163.248 82.3164 163.035 82.5153C162.826 82.7106 162.561 82.8686 162.242 82.9893C161.926 83.1065 161.555 83.1651 161.128 83.1651ZM161.629 81.7482C162.016 81.7482 162.352 81.6719 162.636 81.5192C162.92 81.3629 163.138 81.157 163.291 80.9013C163.447 80.6456 163.525 80.3668 163.525 80.065V79.1009C163.465 79.1506 163.362 79.1967 163.216 79.2393C163.074 79.282 162.915 79.3192 162.737 79.3512C162.559 79.3832 162.384 79.4116 162.21 79.4364C162.036 79.4613 161.885 79.4826 161.757 79.5004C161.469 79.5394 161.212 79.6033 160.985 79.6921C160.757 79.7809 160.578 79.9052 160.447 80.065C160.315 80.2212 160.249 80.4237 160.249 80.6722C160.249 81.0273 160.379 81.2955 160.638 81.4766C160.898 81.6577 161.228 81.7482 161.629 81.7482ZM170.456 83.1598C169.639 83.1598 168.938 82.9805 168.352 82.6218C167.77 82.2631 167.32 81.7678 167.004 81.1357C166.692 80.5 166.536 79.7685 166.536 78.9411C166.536 78.1101 166.695 77.3768 167.015 76.7411C167.335 76.1019 167.786 75.6048 168.368 75.2496C168.954 74.891 169.646 74.7116 170.445 74.7116C171.11 74.7116 171.697 74.8342 172.209 75.0792C172.724 75.3207 173.134 75.6634 173.439 76.1072C173.744 76.5476 173.919 77.0625 173.961 77.652H172.118C172.044 77.2578 171.866 76.9293 171.585 76.6665C171.308 76.4002 170.937 76.267 170.472 76.267C170.078 76.267 169.732 76.3736 169.433 76.5866C169.135 76.7962 168.903 77.098 168.736 77.4922C168.572 77.8864 168.491 78.3587 168.491 78.9091C168.491 79.4666 168.572 79.946 168.736 80.3473C168.899 80.745 169.128 81.0522 169.423 81.2688C169.721 81.4819 170.071 81.5884 170.472 81.5884C170.756 81.5884 171.01 81.5352 171.234 81.4286C171.461 81.3185 171.651 81.1605 171.804 80.9545C171.956 80.7486 172.061 80.4982 172.118 80.2035H173.961C173.915 80.7823 173.744 81.2955 173.45 81.7429C173.155 82.1868 172.754 82.5348 172.246 82.7869C171.738 83.0355 171.142 83.1598 170.456 83.1598ZM175.044 83V74.8182H176.973V83H175.044ZM176.014 73.657C175.709 73.657 175.446 73.5558 175.226 73.3533C175.005 73.1474 174.895 72.9006 174.895 72.6129C174.895 72.3217 175.005 72.0749 175.226 71.8725C175.446 71.6665 175.709 71.5636 176.014 71.5636C176.323 71.5636 176.586 71.6665 176.802 71.8725C177.022 72.0749 177.133 72.3217 177.133 72.6129C177.133 72.9006 177.022 73.1474 176.802 73.3533C176.586 73.5558 176.323 73.657 176.014 73.657ZM182.025 83.1598C181.225 83.1598 180.533 82.984 179.947 82.6325C179.361 82.2809 178.907 81.7891 178.583 81.157C178.264 80.5249 178.104 79.7862 178.104 78.9411C178.104 78.0959 178.264 77.3555 178.583 76.7198C178.907 76.0842 179.361 75.5906 179.947 75.239C180.533 74.8874 181.225 74.7116 182.025 74.7116C182.824 74.7116 183.516 74.8874 184.102 75.239C184.688 75.5906 185.141 76.0842 185.46 76.7198C185.783 77.3555 185.945 78.0959 185.945 78.9411C185.945 79.7862 185.783 80.5249 185.46 81.157C185.141 81.7891 184.688 82.2809 184.102 82.6325C183.516 82.984 182.824 83.1598 182.025 83.1598ZM182.035 81.6151C182.468 81.6151 182.831 81.4961 183.122 81.2582C183.413 81.0167 183.63 80.6935 183.772 80.2887C183.917 79.8839 183.99 79.4329 183.99 78.9357C183.99 78.435 183.917 77.9822 183.772 77.5774C183.63 77.169 183.413 76.8441 183.122 76.6026C182.831 76.3612 182.468 76.2404 182.035 76.2404C181.591 76.2404 181.222 76.3612 180.927 76.6026C180.636 76.8441 180.418 77.169 180.272 77.5774C180.13 77.9822 180.059 78.435 180.059 78.9357C180.059 79.4329 180.13 79.8839 180.272 80.2887C180.418 80.6935 180.636 81.0167 180.927 81.2582C181.222 81.4961 181.591 81.6151 182.035 81.6151ZM189.01 78.206V83H187.082V74.8182H188.925V76.2085H189.021C189.209 75.7504 189.509 75.3864 189.921 75.1165C190.336 74.8466 190.849 74.7116 191.46 74.7116C192.025 74.7116 192.517 74.8324 192.936 75.0739C193.358 75.3153 193.685 75.6651 193.916 76.1232C194.15 76.5813 194.266 77.1371 194.262 77.7905V83H192.334V78.0888C192.334 77.5419 192.192 77.114 191.908 76.805C191.627 76.4961 191.238 76.3416 190.741 76.3416C190.404 76.3416 190.104 76.4162 189.841 76.5653C189.582 76.7109 189.377 76.9222 189.228 77.1992C189.083 77.4762 189.01 77.8118 189.01 78.206ZM198.077 83.1651C197.558 83.1651 197.091 83.0728 196.676 82.8881C196.264 82.6999 195.937 82.4229 195.696 82.0572C195.458 81.6914 195.339 81.2404 195.339 80.7042C195.339 80.2425 195.424 79.8608 195.594 79.5589C195.765 79.2571 195.997 79.0156 196.292 78.8345C196.587 78.6534 196.919 78.5167 197.288 78.4244C197.661 78.3285 198.046 78.2592 198.444 78.2166C198.924 78.1669 199.312 78.1225 199.611 78.0835C199.909 78.0408 200.126 77.9769 200.261 77.8917C200.399 77.8029 200.468 77.6662 200.468 77.4815V77.4496C200.468 77.0483 200.349 76.7376 200.111 76.5174C199.873 76.2972 199.531 76.1871 199.083 76.1871C198.611 76.1871 198.236 76.2901 197.959 76.4961C197.686 76.7021 197.501 76.9453 197.405 77.2259L195.605 76.9702C195.747 76.473 195.981 76.0575 196.308 75.7237C196.635 75.3864 197.034 75.1342 197.507 74.9673C197.979 74.7969 198.501 74.7116 199.073 74.7116C199.467 74.7116 199.859 74.7578 200.25 74.8501C200.641 74.9425 200.997 75.0952 201.321 75.3082C201.644 75.5178 201.903 75.8036 202.098 76.1658C202.297 76.5281 202.397 76.9808 202.397 77.5241V83H200.543V81.8761H200.479C200.362 82.1033 200.197 82.3164 199.984 82.5153C199.774 82.7106 199.509 82.8686 199.19 82.9893C198.874 83.1065 198.503 83.1651 198.077 83.1651ZM198.577 81.7482C198.964 81.7482 199.3 81.6719 199.584 81.5192C199.868 81.3629 200.087 81.157 200.239 80.9013C200.396 80.6456 200.474 80.3668 200.474 80.065V79.1009C200.413 79.1506 200.31 79.1967 200.165 79.2393C200.023 79.282 199.863 79.3192 199.685 79.3512C199.508 79.3832 199.332 79.4116 199.158 79.4364C198.984 79.4613 198.833 79.4826 198.705 79.5004C198.418 79.5394 198.16 79.6033 197.933 79.6921C197.706 79.7809 197.526 79.9052 197.395 80.065C197.263 80.2212 197.198 80.4237 197.198 80.6722C197.198 81.0273 197.327 81.2955 197.587 81.4766C197.846 81.6577 198.176 81.7482 198.577 81.7482ZM205.764 72.0909V83H203.835V72.0909H205.764ZM210.553 72.0909H212.971L216.21 79.9957H216.337L219.576 72.0909H221.994V83H220.098V75.5053H219.997L216.982 82.968H215.565L212.55 75.4893H212.449V83H210.553V72.0909ZM223.561 83V74.8182H225.489V83H223.561ZM224.531 73.657C224.225 73.657 223.962 73.5558 223.742 73.3533C223.522 73.1474 223.412 72.9006 223.412 72.6129C223.412 72.3217 223.522 72.0749 223.742 71.8725C223.962 71.6665 224.225 71.5636 224.531 71.5636C224.839 71.5636 225.102 71.6665 225.319 71.8725C225.539 72.0749 225.649 72.3217 225.649 72.6129C225.649 72.9006 225.539 73.1474 225.319 73.3533C225.102 73.5558 224.839 73.657 224.531 73.657ZM226.972 83V74.8182H228.842V76.1818H228.927C229.076 75.7095 229.332 75.3455 229.694 75.0898C230.06 74.8306 230.477 74.701 230.946 74.701C231.052 74.701 231.171 74.7063 231.303 74.717C231.438 74.7241 231.55 74.7365 231.638 74.7543V76.5281C231.557 76.4996 231.427 76.4748 231.25 76.4535C231.076 76.4286 230.907 76.4162 230.744 76.4162C230.392 76.4162 230.076 76.4925 229.795 76.6452C229.518 76.7944 229.3 77.0021 229.14 77.2685C228.98 77.5348 228.9 77.842 228.9 78.19V83H226.972ZM232.419 83V74.8182H234.348V83H232.419ZM233.389 73.657C233.084 73.657 232.821 73.5558 232.601 73.3533C232.38 73.1474 232.27 72.9006 232.27 72.6129C232.27 72.3217 232.38 72.0749 232.601 71.8725C232.821 71.6665 233.084 71.5636 233.389 71.5636C233.698 71.5636 233.961 71.6665 234.177 71.8725C234.397 72.0749 234.508 72.3217 234.508 72.6129C234.508 72.9006 234.397 73.1474 234.177 73.3533C233.961 73.5558 233.698 73.657 233.389 73.657ZM238.185 83.1651C237.667 83.1651 237.2 83.0728 236.784 82.8881C236.372 82.6999 236.045 82.4229 235.804 82.0572C235.566 81.6914 235.447 81.2404 235.447 80.7042C235.447 80.2425 235.532 79.8608 235.703 79.5589C235.873 79.2571 236.106 79.0156 236.401 78.8345C236.695 78.6534 237.027 78.5167 237.397 78.4244C237.77 78.3285 238.155 78.2592 238.553 78.2166C239.032 78.1669 239.421 78.1225 239.719 78.0835C240.017 78.0408 240.234 77.9769 240.369 77.8917C240.507 77.8029 240.577 77.6662 240.577 77.4815V77.4496C240.577 77.0483 240.458 76.7376 240.22 76.5174C239.982 76.2972 239.639 76.1871 239.192 76.1871C238.719 76.1871 238.345 76.2901 238.068 76.4961C237.794 76.7021 237.61 76.9453 237.514 77.2259L235.713 76.9702C235.855 76.473 236.09 76.0575 236.417 75.7237C236.743 75.3864 237.143 75.1342 237.615 74.9673C238.087 74.7969 238.609 74.7116 239.181 74.7116C239.575 74.7116 239.968 74.7578 240.358 74.8501C240.749 74.9425 241.106 75.0952 241.429 75.3082C241.752 75.5178 242.011 75.8036 242.207 76.1658C242.406 76.5281 242.505 76.9808 242.505 77.5241V83H240.651V81.8761H240.587C240.47 82.1033 240.305 82.3164 240.092 82.5153C239.882 82.7106 239.618 82.8686 239.298 82.9893C238.982 83.1065 238.611 83.1651 238.185 83.1651ZM238.686 81.7482C239.073 81.7482 239.408 81.6719 239.692 81.5192C239.977 81.3629 240.195 81.157 240.348 80.9013C240.504 80.6456 240.582 80.3668 240.582 80.065V79.1009C240.522 79.1506 240.419 79.1967 240.273 79.2393C240.131 79.282 239.971 79.3192 239.794 79.3512C239.616 79.3832 239.44 79.4116 239.266 79.4364C239.092 79.4613 238.941 79.4826 238.814 79.5004C238.526 79.5394 238.268 79.6033 238.041 79.6921C237.814 79.7809 237.635 79.9052 237.503 80.065C237.372 80.2212 237.306 80.4237 237.306 80.6722C237.306 81.0273 237.436 81.2955 237.695 81.4766C237.954 81.6577 238.284 81.7482 238.686 81.7482ZM245.872 78.206V83H243.944V74.8182H245.787V76.2085H245.883C246.071 75.7504 246.371 75.3864 246.783 75.1165C247.199 74.8466 247.712 74.7116 248.322 74.7116C248.887 74.7116 249.379 74.8324 249.798 75.0739C250.221 75.3153 250.547 75.6651 250.778 76.1232C251.012 76.5813 251.128 77.1371 251.124 77.7905V83H249.196V78.0888C249.196 77.5419 249.054 77.114 248.77 76.805C248.489 76.4961 248.1 76.3416 247.603 76.3416C247.266 76.3416 246.966 76.4162 246.703 76.5653C246.444 76.7109 246.24 76.9222 246.091 77.1992C245.945 77.4762 245.872 77.8118 245.872 78.206ZM255.89 72.0909H258.309L261.547 79.9957H261.675L264.914 72.0909H267.332V83H265.436V75.5053H265.335L262.32 82.968H260.903L257.888 75.4893H257.787V83H255.89V72.0909ZM272.521 83.1598C271.701 83.1598 270.992 82.9893 270.396 82.6484C269.803 82.304 269.346 81.8175 269.027 81.1889C268.707 80.5568 268.547 79.8129 268.547 78.957C268.547 78.1154 268.707 77.3768 269.027 76.7411C269.35 76.1019 269.801 75.6048 270.38 75.2496C270.959 74.891 271.639 74.7116 272.42 74.7116C272.924 74.7116 273.4 74.7933 273.847 74.9567C274.298 75.1165 274.696 75.3651 275.041 75.7024C275.389 76.0398 275.662 76.4695 275.861 76.9915C276.06 77.5099 276.159 78.1278 276.159 78.8452V79.4364H269.453V78.1367H274.311C274.307 77.7674 274.227 77.4389 274.071 77.1513C273.915 76.8601 273.697 76.631 273.416 76.4641C273.139 76.2972 272.816 76.2138 272.447 76.2138C272.052 76.2138 271.706 76.3097 271.408 76.5014C271.11 76.6896 270.877 76.9382 270.71 77.2472C270.547 77.5526 270.463 77.8881 270.46 78.2539V79.3885C270.46 79.8643 270.547 80.2727 270.721 80.6136C270.895 80.951 271.138 81.2102 271.45 81.3913C271.763 81.5689 272.129 81.6577 272.548 81.6577C272.828 81.6577 273.082 81.6186 273.309 81.5405C273.537 81.4588 273.734 81.3398 273.901 81.1836C274.068 81.0273 274.194 80.8338 274.279 80.603L276.079 80.8054C275.966 81.2812 275.749 81.6967 275.43 82.0518C275.113 82.4034 274.709 82.6768 274.215 82.8722C273.721 83.0639 273.157 83.1598 272.521 83.1598ZM279.219 78.206V83H277.291V74.8182H279.134V76.2085H279.229C279.418 75.7504 279.718 75.3864 280.13 75.1165C280.545 74.8466 281.058 74.7116 281.669 74.7116C282.234 74.7116 282.726 74.8324 283.145 75.0739C283.567 75.3153 283.894 75.6651 284.125 76.1232C284.359 76.5813 284.475 77.1371 284.471 77.7905V83H282.543V78.0888C282.543 77.5419 282.401 77.114 282.117 76.805C281.836 76.4961 281.447 76.3416 280.95 76.3416C280.613 76.3416 280.313 76.4162 280.05 76.5653C279.791 76.7109 279.586 76.9222 279.437 77.1992C279.292 77.4762 279.219 77.8118 279.219 78.206ZM289.5 83.1598C288.683 83.1598 287.982 82.9805 287.396 82.6218C286.814 82.2631 286.364 81.7678 286.048 81.1357C285.736 80.5 285.58 79.7685 285.58 78.9411C285.58 78.1101 285.739 77.3768 286.059 76.7411C286.379 76.1019 286.83 75.6048 287.412 75.2496C287.998 74.891 288.69 74.7116 289.489 74.7116C290.153 74.7116 290.741 74.8342 291.253 75.0792C291.767 75.3207 292.178 75.6634 292.483 76.1072C292.788 76.5476 292.962 77.0625 293.005 77.652H291.162C291.087 77.2578 290.91 76.9293 290.629 76.6665C290.352 76.4002 289.981 76.267 289.516 76.267C289.122 76.267 288.776 76.3736 288.477 76.5866C288.179 76.7962 287.946 77.098 287.78 77.4922C287.616 77.8864 287.535 78.3587 287.535 78.9091C287.535 79.4666 287.616 79.946 287.78 80.3473C287.943 80.745 288.172 81.0522 288.467 81.2688C288.765 81.4819 289.115 81.5884 289.516 81.5884C289.8 81.5884 290.054 81.5352 290.278 81.4286C290.505 81.3185 290.695 81.1605 290.848 80.9545C291 80.7486 291.105 80.4982 291.162 80.2035H293.005C292.959 80.7823 292.788 81.2955 292.494 81.7429C292.199 82.1868 291.798 82.5348 291.29 82.7869C290.782 83.0355 290.185 83.1598 289.5 83.1598ZM296.017 78.206V83H294.088V72.0909H295.974V76.2085H296.07C296.262 75.7468 296.558 75.3828 296.96 75.1165C297.364 74.8466 297.879 74.7116 298.504 74.7116C299.072 74.7116 299.568 74.8306 299.99 75.0685C300.413 75.3065 300.74 75.6545 300.971 76.1126C301.205 76.5707 301.322 77.13 301.322 77.7905V83H299.394V78.0888C299.394 77.5384 299.252 77.1104 298.968 76.805C298.687 76.4961 298.293 76.3416 297.785 76.3416C297.444 76.3416 297.139 76.4162 296.869 76.5653C296.603 76.7109 296.393 76.9222 296.24 77.1992C296.091 77.4762 296.017 77.8118 296.017 78.206ZM302.788 83V74.8182H304.716V83H302.788ZM303.757 73.657C303.452 73.657 303.189 73.5558 302.969 73.3533C302.749 73.1474 302.638 72.9006 302.638 72.6129C302.638 72.3217 302.749 72.0749 302.969 71.8725C303.189 71.6665 303.452 71.5636 303.757 71.5636C304.066 71.5636 304.329 71.6665 304.545 71.8725C304.766 72.0749 304.876 72.3217 304.876 72.6129C304.876 72.9006 304.766 73.1474 304.545 73.3533C304.329 73.5558 304.066 73.657 303.757 73.657ZM308.127 78.206V83H306.199V74.8182H308.042V76.2085H308.138C308.326 75.7504 308.626 75.3864 309.038 75.1165C309.453 74.8466 309.967 74.7116 310.577 74.7116C311.142 74.7116 311.634 74.8324 312.053 75.0739C312.475 75.3153 312.802 75.6651 313.033 76.1232C313.267 76.5813 313.383 77.1371 313.379 77.7905V83H311.451V78.0888C311.451 77.5419 311.309 77.114 311.025 76.805C310.744 76.4961 310.355 76.3416 309.858 76.3416C309.521 76.3416 309.221 76.4162 308.958 76.5653C308.699 76.7109 308.495 76.9222 308.345 77.1992C308.2 77.4762 308.127 77.8118 308.127 78.206ZM314.839 83V74.8182H316.768V83H314.839ZM315.809 73.657C315.503 73.657 315.241 73.5558 315.021 73.3533C314.8 73.1474 314.69 72.9006 314.69 72.6129C314.69 72.3217 314.8 72.0749 315.021 71.8725C315.241 71.6665 315.503 71.5636 315.809 71.5636C316.118 71.5636 316.381 71.6665 316.597 71.8725C316.817 72.0749 316.927 72.3217 316.927 72.6129C316.927 72.9006 316.817 73.1474 316.597 73.3533C316.381 73.5558 316.118 73.657 315.809 73.657Z" fill="white"/>
<path d="M26.0725 63H15.8325V0.279999H26.0725V63ZM85.0625 9.24H66.5025V63H56.2625V9.24H37.7025V0.279999H85.0625V9.24ZM141.508 63H96.7075V18.2L105.668 9.24H96.7075V0.279999H141.508V9.24H106.948V34.84L114.628 27.16H141.508V36.12H106.948V54.04H141.508V63ZM222.928 62.872H212.688V15.768L216.528 9.368H210.768L195.024 45.08H187.6L172.368 9.368H166.608L170.448 15.768V62.872H160.208V0.279999H178.512L191.184 30.232H192.464L205.136 0.279999H222.928V62.872ZM308.178 62.872H297.938V15.768L301.778 9.368H296.018L280.274 45.08H272.85L257.618 9.368H251.858L255.698 15.768V62.872H245.458V0.279999H263.762L276.434 30.232H277.714L290.386 0.279999H308.178V62.872Z" fill="white"/>
</svg>
