<svg width="242" height="230" viewBox="0 0 242 230" fill="none" xmlns="http://www.w3.org/2000/svg">
<path fill-rule="evenodd" clip-rule="evenodd" d="M121.131 145.531L121.141 113.631C108.839 105.381 4.06981 50.5123 0.587112 50.2225C-0.634502 52.7681 1.35452 76.3086 0 82.1225C15.1663 90.1477 112.668 144.811 121.131 145.531Z" fill="#95CA60"/>
<path fill-rule="evenodd" clip-rule="evenodd" d="M121.267 106.781L121.547 93.4734C119.707 93.4336 119.368 89.6003 118.906 88.0761C117.283 82.428 113.966 76.5107 110.32 72.1993C100.199 60.2333 18.5804 18.7041 15.5654 17.2394C13.8167 16.3897 9.92397 16.2572 7.97586 16.7091C-2.80324 19.209 0.689173 34.2165 0.391223 42.9816C6.24711 44.3458 113.832 101.802 121.267 106.781C121.818 106.653 120.865 107.051 121.267 106.781Z" fill="#95CA60"/>
<path fill-rule="evenodd" clip-rule="evenodd" d="M0.391357 160.6C16.4425 164.341 47.3205 189.564 56.7544 189.564C56.7544 179.232 56.4631 168.918 56.5759 158.626C56.5856 157.725 56.7296 157.516 56.1333 157.307C44.2255 153.136 6.99709 129.055 0.391357 128.504V160.6Z" fill="#95CA60"/>
<path fill-rule="evenodd" clip-rule="evenodd" d="M0.391262 121.459L3.84877 123.09C14.8468 128.59 47.222 147.949 56.1671 150.032V118.328C48.1729 116.465 12.3208 94.395 5.74348 91.0567C-1.43019 87.4162 0.437031 89.0858 0.394038 96.602L0.391262 121.459Z" fill="#95CA60"/>
<path fill-rule="evenodd" clip-rule="evenodd" d="M54.0123 229.099C57.5569 230.516 56.1673 229.953 56.1673 226.944L56.3631 197.393C47.7424 195.09 10.3955 169.229 0.782959 168.428C0.782959 174.72 1.01248 178.724 2.20081 183.841C2.66126 185.824 3.59556 188.171 4.38678 190.07C10.5166 204.791 37.4171 222.465 54.0123 229.099Z" fill="#95CA60"/>
<path fill-rule="evenodd" clip-rule="evenodd" d="M121.141 113.631L121.131 145.531C125.838 145.531 125.809 144.37 129.03 142.461C136.29 138.157 227.336 85.2286 241.499 81.9267C241.499 71.0195 241.695 60.589 241.695 49.8312C236.32 49.9511 146.918 100.248 121.141 113.631Z" fill="#022664"/>
<path fill-rule="evenodd" clip-rule="evenodd" d="M121.547 93.4734L121.267 106.781C132.329 102.377 241.365 42.8567 241.588 42.0919C242.247 39.8326 241.683 25.787 240.988 23.5314C240.168 20.8742 237.822 17.6834 235.163 16.6354C233.804 16.1001 230.947 15.2864 229.125 15.8296C212.628 20.7523 159.185 52.5973 142.435 63.1006C130.811 70.3887 128.896 75.4176 123.895 88.3424C123.276 89.9433 121.993 92.4529 121.547 93.4734Z" fill="#022664"/>
<path fill-rule="evenodd" clip-rule="evenodd" d="M185.919 117.936V150.424C195.763 148.13 226.379 129.758 241.695 121.655C241.695 110.769 241.304 99.814 241.304 88.972C226.019 92.5347 199.267 114.826 185.919 117.936Z" fill="#022664"/>
<path fill-rule="evenodd" clip-rule="evenodd" d="M185.919 157.077C185.919 162.557 185.919 168.037 185.919 173.517C185.919 179.167 186.115 184.239 186.115 189.956C204.434 180.423 222.727 170.252 241.151 161.035C241.547 160.672 241.665 160.027 241.695 159.307V157.664C241.66 148.253 241.693 138.834 241.695 129.422V128.963V128.505C232.49 129.271 193.929 156.411 185.919 157.077Z" fill="#022664"/>
<path fill-rule="evenodd" clip-rule="evenodd" d="M187.093 229.88C193.789 229.88 231.06 207.84 236.52 194.779C240.382 185.541 241.499 177.652 241.499 167.841C239.523 168.006 232.81 171.697 231.258 172.473C226.341 174.931 221.5 177.918 216.773 180.299C206.988 185.668 197.592 190.738 187.649 195.796C185.356 196.688 185.919 197.283 185.919 201.502C185.919 204.424 186.117 221.648 185.806 223.7C185.639 224.802 185.612 227.925 185.926 229.091C186.088 229.694 186.273 229.88 187.093 229.88Z" fill="#022664"/>
<path fill-rule="evenodd" clip-rule="evenodd" d="M120.75 59.6164C111.91 59.6164 38.2795 11.433 28.3785 11.4924C24.2588 11.5173 23.876 11.5945 23.876 15.3872C23.876 18.0796 100.007 56.8215 108.926 62.0427C112.199 63.9589 116.895 67.0533 120.945 67.0533C125.113 67.0533 206.266 22.78 216.46 16.5723C221.529 13.4865 215.797 8.19482 207.726 13.7088C199.323 19.4485 126.534 59.6164 120.75 59.6164Z" fill="#022664"/>
<path fill-rule="evenodd" clip-rule="evenodd" d="M120.639 53.8566C121.609 54.0226 197.838 18.1041 203.026 8.52813C203.805 7.08947 202.556 5.53615 199.654 5.53615C186.411 5.53615 142.368 38.4083 124.313 45.0522C122.206 45.8272 119.456 45.6754 117.477 44.8844C108.456 41.2808 57.6633 8.7031 42.1108 4.47195C39.656 3.80416 38.2194 5.07362 37.8151 5.97048C37.0667 7.63173 108.997 51.8683 120.639 53.8566Z" fill="#022664"/>
<path fill-rule="evenodd" clip-rule="evenodd" d="M52.6445 2.07908C50.2554 4.48556 119.338 39.8502 120.358 39.8502C126.348 39.8502 189.302 4.30849 188.917 3.87092C187.913 2.72929 186.875 2.01367 185.806 1.61286C177.076 -1.65903 136.858 26.8752 125.56 30.4806C121.777 31.6877 120.096 30.7821 117.142 30.0921C94.0856 24.7082 63.1918 -8.54053 52.6445 2.07908Z" fill="#022664"/>
</svg>
